<?xml version="1.0" encoding="UTF-8"?>
<svg width="382px" height="270px" viewBox="0 0 382 270" version="1.1" xmlns="http://www.w3.org/2000/svg" xmlns:xlink="http://www.w3.org/1999/xlink">
    <!-- Generator: Sketch 49 (51002) - http://www.bohemiancoding.com/sketch -->
    <title>safari-pinned-tab</title>
    <desc>Created with Sketch.</desc>
    <defs></defs>
    <g id="Page-1" stroke="none" stroke-width="1" fill="none" fill-rule="evenodd">
        <g id="safari-pinned-tab" transform="translate(-45.000000, -103.000000)">
            <g id="Group" transform="translate(237.400000, 236.600000) scale(-1, 1) rotate(-180.000000) translate(-237.400000, -236.600000) translate(0.900000, 0.100000)">
                <path d="M30.6,470.7 C15.8,467 4.4,455.2 1.2,440.3 C-0.4,432.8 -0.4,39.4 1.2,31.9 C4.5,16.6 16.6,4.5 31.9,1.2 C39.4,-0.4 432.8,-0.4 440.3,1.2 C455.6,4.5 467.7,16.6 471,31.9 C472.6,39.4 472.6,432.8 471,440.3 C467.7,455.6 455.6,467.7 440.3,471 C432.3,472.7 37.5,472.4 30.6,470.7 Z" id="Shape" fill-rule="nonzero"></path>
                <path d="M368.6,366.8 C392.4,360.3 409.6,347.5 417.9,330.1 C424.1,317.3 425.5,310.3 425.4,292.6 C425.4,280.5 425,276.1 423.2,269.7 C417.8,249.5 406.5,235.3 389.1,226.7 C383.9,224.2 375.1,220.9 369.6,219.4 C360.3,217 358,216.8 337.9,216.7 L316.2,216.6 L313.4,219.4 C309.6,223.2 309.6,229 313.4,232.8 L316.1,235.6 L337.9,236.2 C356,236.8 360.8,237.2 367.1,239.1 C395,247.2 407.1,265.1 405.8,296.6 C404.7,323.9 393,338.6 365.6,347.3 C358.6,349.5 358.3,349.6 271.1,349.9 C181.2,350.2 173,349.9 168.1,346.3 C162.6,342.2 150.9,319.6 119.6,252.6 C82.5,173.1 64.1,132.2 64.1,129.4 C64.1,126.4 66.6,123.4 70.9,121.2 C73.7,119.7 76.6,121.3 80.5,126.4 C84.4,131.5 98.7,161.6 112.5,193.9 C119.4,210 125.8,224.5 126.6,226.1 C129.2,231.1 134.1,236 140,239.4 C150.7,245.7 153.7,246.3 176.3,247 L197.1,247.6 L200,250.6 C201.8,252.4 208.6,265.4 217.1,283.1 C224.9,299.3 232.3,314.9 233.7,317.7 C237.4,325.6 243.3,331.6 250.9,335.3 C256.8,338.2 258.5,338.6 265.6,338.6 C272.2,338.5 274.6,338.1 279.6,335.8 C286.5,332.6 291.4,328.3 294.4,322.6 L296.6,318.6 L296.6,213.3 L296.6,107.9 L293.8,105.5 C290.8,102.9 286.7,102.4 282.8,104.2 C277.4,106.7 277.6,101.4 277.1,212.1 L276.6,314.5 L273.2,316.8 C269.2,319.5 263.4,319.8 259.1,317.6 C255.1,315.5 252,311.1 247.3,300.6 C236.1,275.6 219,242 215.6,238.2 C211.5,233.7 206.8,230.5 201.9,228.9 C200.1,228.4 189.4,227.6 178.1,227.2 C159.4,226.6 157.2,226.3 153.1,224.2 C150.6,222.9 147.6,221 146.4,219.9 C145.2,218.8 138.8,205 132.1,189.2 C125.3,173.5 115,150.7 109.1,138.6 C97.4,114.6 92.4,107.6 83.9,103.3 C74.6,98.7 62.5,101.2 53.1,109.7 C45.7,116.4 42.9,125.3 45,135.1 C47.1,144.9 124.2,311.1 139.9,339.6 C152.1,361.8 159.1,367.2 177.6,369.1 C182,369.5 224.5,369.8 272.1,369.7 L358.6,369.6 L368.6,366.8 Z" id="Path" fill="#000000"></path>
            </g>
        </g>
    </g>
</svg>