<?xml version="1.0" encoding="UTF-8"?>
<svg width="349px" height="248px" viewBox="0 0 349 248" version="1.1" xmlns="http://www.w3.org/2000/svg" xmlns:xlink="http://www.w3.org/1999/xlink">
    <!-- Generator: Sketch 49.3 (51167) - http://www.bohemiancoding.com/sketch -->
    <title>safari-pinned-tab</title>
    <desc>Created with Sketch.</desc>
    <defs></defs>
    <g id="Page-1" stroke="none" stroke-width="1" fill="none" fill-rule="evenodd">
        <g id="safari-pinned-tab" fill="#FFFFFF" fill-rule="nonzero">
            <g id="Group" transform="translate(174.400000, 123.650000) scale(-1, 1) rotate(-180.000000) translate(-174.400000, -123.650000) translate(0.300000, -0.000000)">
                <path d="M116.2,245.9 C109.6,244.3 103.5,241 98.7,236.6 C94.8,233.2 90.9,226 77.4,197.3 C74.9,192.1 69.9,181.5 66.2,173.8 C62.5,166.1 58.2,157.1 56.7,153.8 C55.2,150.5 51.9,143.5 49.4,138.3 C16.8,69.8 2.5,39 1.1,34.6 C-0.7,28.7 -1.38777878e-17,18.7 2.5,13.7 C4.9,8.9 10.6,3.7 15.6,1.5 C23.6,-1.8 35.3,0.5 42.3,7 C48.4,12.7 51.1,17.8 68.9,57.8 C73.3,67.7 77.5,77.2 78.2,78.8 C79,80.5 80.8,84.7 82.3,88.3 C88.9,104.5 93.9,112.2 99.1,114.7 C103.9,116.9 107.8,117.4 125.5,117.7 C134.1,117.9 143.1,118.5 145.4,119.2 C149.5,120.3 154.5,123.8 157.9,127.8 C160.2,130.5 178.4,167.4 186.3,185.3 C189.9,193.7 193.3,198.8 196.4,200.9 C201.6,204.3 210.7,202.9 214.8,198.1 C216.6,196.1 216.7,192.2 216.7,102.2 C216.7,35.6 217,7.7 217.8,6 C219.3,2.6 222.8,0.9 226.6,1.8 C233.1,3.2 232.7,-2.9 232.7,102.8 C232.7,210.9 233.2,203 225,210.5 C212.2,222 194,221.6 182.2,209.4 C178.1,205.3 177.3,203.7 167.5,183 C148.7,143 145.8,137.4 143.1,135.7 C141.1,134.3 137.5,133.9 124.1,133.7 C87.7,133 83,129.6 65.8,91.1 C64.7,88.5 63.7,86.1 63.7,85.9 C63.7,85.1 46.9,47.7 40.5,34.2 C35.7,24.3 33.1,20 30.8,18.4 C24.5,13.9 17.4,16.2 16.2,23.2 C15.4,28.2 15.6,28.9 22.8,44.2 C26.1,50.9 28.7,56.6 28.7,56.8 C28.7,56.9 31.3,62.6 34.6,69.4 C37.8,76.2 42,85.2 44,89.3 C45.9,93.4 50.7,103.5 54.6,111.7 C58.5,119.9 61.7,126.7 61.7,126.9 C61.7,127 64.8,133.6 68.6,141.5 C72.4,149.4 76.8,158.7 78.5,162.3 C80.1,165.9 84.5,175.1 88.2,182.8 C91.9,190.5 97.6,202.4 100.9,209.3 C107.7,223.6 109.3,225.7 116.2,228.9 L121.2,231.3 L207.2,231 C286,230.7 293.7,230.5 299.2,228.9 C317.2,223.6 327,214.1 330.7,198.3 C332.4,191.2 332.4,175.3 330.7,168.3 C326.3,149.8 313.9,139.4 291.4,135.2 C288,134.6 277.8,133.9 268.8,133.8 C253.8,133.5 252.2,133.3 250.4,131.4 C247.5,128.6 247.6,122.9 250.5,120 C252.6,117.9 253.6,117.8 267,117.9 C274.8,117.9 283.9,118.2 287.2,118.5 C300.8,119.9 314.3,124.4 323.7,130.7 C329.3,134.4 337.3,142.7 338.9,146.5 C339.6,148 340.5,149.3 340.9,149.3 C341.4,149.3 341.7,150.2 341.7,151.2 C341.7,152.3 342.1,153.4 342.6,153.7 C344.5,154.9 347.9,170.9 348.1,180 C349.1,217.7 331.7,239.2 295.1,245.7 C284.2,247.7 123.9,247.8 116.2,245.9 Z" id="Shape"></path>
            </g>
        </g>
    </g>
</svg>